<?xml version="1.0" encoding="UTF-8"?>
<svg id="Layer_1" data-name="Layer 1" xmlns="http://www.w3.org/2000/svg" viewBox="0 0 620 128">
  <g>
    <polygon points="65.93 10.37 56.23 10.37 41.77 10.37 35.94 28.72 57.85 115.53 67.55 115.53 82.76 115.53 92.46 115.53 65.93 10.37" fill="#1a51a0"/>
    <polygon points="109.94 10.37 100.24 10.37 85.77 10.37 79.96 28.72 101.86 115.53 111.56 115.53 126.77 115.53 136.47 115.53 109.94 10.37" fill="#1a51a0"/>
    <polygon points="125.6 10.37 117.34 10.37 143.87 115.53 152.13 115.53 125.6 10.37" fill="#be1f24"/>
    <path d="M30.61,47.48l-9.91,32.79h15.79c.47,0,.66.6.29.87l-13.16,9.56,5.03,15.47c.14.44-.37.82-.74.54l-12.46-9.05-5.39,17.85h37.73L30.61,47.48h0Z" fill="#1a51a0"/>
  </g>
  <g>
    <path d="M178.09,47.72h6.54l16.38,25.1,16.33-25.1h6.38v37.23h-6.17v-28.19l-13.94,21.27h-5.42l-13.88-21.22v28.14h-6.22v-37.23Z" fill="#0f4c96"/>
    <path d="M260.32,72.87h-23.4c.07,1.28.29,2.37.67,3.27.37.9.89,1.65,1.54,2.23.66.58,1.4,1.06,2.23,1.41.83.36,1.76.6,2.77.75,1.01.14,2.08.21,3.22.21,2.06,0,4.02-.2,5.9-.61,1.88-.41,3.69-.97,5.42-1.67l.85,4.52c-1.13.46-2.39.89-3.78,1.28-1.38.39-2.86.69-4.42.9-1.56.21-3.21.32-4.95.32-1.52,0-2.99-.1-4.39-.29-1.4-.2-2.7-.51-3.88-.96-1.19-.44-2.25-1.03-3.19-1.76-.94-.73-1.75-1.6-2.42-2.63s-1.19-2.22-1.54-3.59c-.35-1.36-.53-2.92-.53-4.65v-1.28c0-1.74.2-3.28.59-4.63.39-1.35.95-2.53,1.67-3.54.73-1.01,1.58-1.86,2.55-2.55.97-.69,2.05-1.26,3.22-1.7s2.41-.76,3.72-.96c1.31-.2,2.64-.29,3.99-.29,1.63,0,3.17.14,4.63.43,1.45.28,2.76.75,3.91,1.41,1.15.66,2.15,1.51,3,2.55.85,1.05,1.5,2.32,1.94,3.83.44,1.51.66,3.29.66,5.35v2.66ZM250.64,62c-.67-.34-1.42-.58-2.23-.72-.82-.14-1.72-.21-2.71-.21-.89,0-1.75.07-2.58.21-.83.14-1.61.37-2.31.69-.71.32-1.34.77-1.89,1.36s-.99,1.32-1.33,2.21c-.34.89-.56,1.95-.67,3.19h17.07c-.04-1.24-.2-2.3-.48-3.19-.28-.89-.67-1.61-1.14-2.18-.48-.57-1.06-1.02-1.73-1.36Z" fill="#0f4c96"/>
    <path d="M267.02,57.61h5.64l.48,5.53c.57-1.42,1.32-2.57,2.26-3.46.94-.89,2.02-1.53,3.24-1.94,1.22-.41,2.58-.61,4.07-.61.92,0,1.72.07,2.39.21.67.14,1.28.34,1.81.58l-.96,5.32c-.57-.25-1.14-.42-1.73-.53s-1.27-.16-2.05-.16c-.96,0-1.87.11-2.74.32-.87.21-1.67.55-2.39,1.01-.73.46-1.36,1.08-1.89,1.86-.53.78-.95,1.75-1.25,2.9-.3,1.15-.45,2.51-.45,4.07v12.23h-6.44v-27.34Z" fill="#0f4c96"/>
    <path d="M298.4,53.35h-6.75v-6.33h6.75v6.33ZM291.75,57.61h6.44v27.34h-6.44v-27.34Z" fill="#0f4c96"/>
    <path d="M331,63.94c-.92-.42-1.87-.79-2.85-1.09-.98-.3-2-.53-3.08-.69-1.08-.16-2.26-.24-3.54-.24-.85,0-1.7.06-2.55.19-.85.12-1.66.33-2.42.61-.76.28-1.47.66-2.13,1.12-.66.46-1.22,1.03-1.7,1.7-.48.67-.85,1.47-1.12,2.39-.27.92-.4,1.99-.4,3.19v1.12c0,1.28.18,2.39.53,3.32.35.94.86,1.73,1.52,2.37.66.64,1.41,1.16,2.26,1.57.85.41,1.78.7,2.79.88,1.01.18,2.05.27,3.11.27,1.35,0,2.59-.08,3.72-.24,1.13-.16,2.22-.39,3.27-.69,1.05-.3,2.07-.66,3.06-1.09l.85,4.63c-.99.43-2.08.81-3.27,1.14-1.19.34-2.49.6-3.91.8-1.42.19-2.98.29-4.68.29-1.45,0-2.85-.11-4.2-.32-1.35-.21-2.62-.53-3.8-.96-1.19-.43-2.26-.98-3.22-1.68-.96-.69-1.78-1.52-2.47-2.5-.69-.97-1.22-2.11-1.6-3.4-.37-1.29-.56-2.74-.56-4.33v-1.22c0-1.7.2-3.24.61-4.6.41-1.36.97-2.56,1.7-3.59.73-1.03,1.59-1.92,2.61-2.66s2.12-1.35,3.32-1.81c1.21-.46,2.49-.8,3.86-1.01,1.36-.21,2.77-.32,4.23-.32,1.56,0,3,.1,4.31.29,1.31.2,2.52.46,3.62.8,1.1.34,2.09.72,2.98,1.14l-.85,4.63Z" fill="#0f4c96"/>
    <path d="M338.44,46.12h6.33v22.87l14.25-11.38h8.4l-16.17,12.34,17.23,15h-8.56l-15.16-13.99v13.99h-6.33v-38.83Z" fill="#0f4c96"/>
    <path d="M398.44,68.3v16.65h-5.8l-.27-3.83c-.92,1.56-2.27,2.75-4.04,3.56-1.77.81-4.02,1.22-6.75,1.22-.96,0-1.92-.05-2.87-.16-.96-.11-1.86-.28-2.71-.53-.85-.25-1.64-.58-2.37-.98-.73-.41-1.35-.92-1.86-1.54-.51-.62-.92-1.36-1.22-2.21-.3-.85-.45-1.84-.45-2.98s.15-2.16.45-3.08c.3-.92.8-1.75,1.49-2.47.69-.73,1.61-1.34,2.77-1.83,1.15-.5,2.59-.88,4.31-1.14s3.75-.4,6.09-.4c1.38,0,2.63.04,3.75.11s2.15.14,3.11.21v-.8c0-1.17-.17-2.15-.51-2.95s-.84-1.44-1.52-1.92-1.5-.83-2.47-1.06c-.98-.23-2.1-.35-3.38-.35s-2.56.11-3.86.32c-1.29.21-2.55.5-3.78.85-1.22.35-2.38.78-3.48,1.28l-.8-4.57c.74-.35,1.59-.69,2.53-1.01.94-.32,1.95-.6,3.03-.85,1.08-.25,2.21-.44,3.38-.58,1.17-.14,2.39-.21,3.67-.21,4.57,0,7.98.92,10.21,2.77,2.23,1.84,3.35,4.68,3.35,8.51ZM391.63,77.05c.28-.8.43-1.73.43-2.79v-1.33c-.71-.07-1.4-.12-2.07-.16-.67-.04-1.38-.06-2.1-.08-.73-.02-1.53-.03-2.42-.03-1.7,0-3.12.09-4.25.27-1.14.18-2.05.44-2.74.8-.69.36-1.18.82-1.46,1.38s-.43,1.24-.43,2.02c0,.85.15,1.55.45,2.1.3.55.73.99,1.28,1.33s1.21.57,2,.69c.78.12,1.65.19,2.61.19,1.06,0,2.06-.08,2.98-.24.92-.16,1.76-.41,2.53-.74s1.42-.79,1.97-1.36c.55-.57.97-1.25,1.25-2.05Z" fill="#0f4c96"/>
    <path d="M455.03,82.92c-.99.39-2.13.75-3.4,1.06-1.28.32-2.64.6-4.09.85-1.46.25-2.95.44-4.5.58-1.54.14-3.11.21-4.71.21-2.13,0-4.16-.13-6.09-.4-1.93-.27-3.72-.68-5.37-1.25s-3.14-1.32-4.47-2.26c-1.33-.94-2.46-2.07-3.4-3.4-.94-1.33-1.66-2.88-2.15-4.65-.5-1.77-.75-3.79-.75-6.06v-1.65c0-2.02.19-3.85.58-5.48.39-1.63.96-3.1,1.7-4.41.75-1.31,1.64-2.47,2.69-3.48,1.04-1.01,2.21-1.87,3.51-2.58,1.29-.71,2.69-1.28,4.17-1.73,1.49-.44,3.06-.77,4.71-.98,1.65-.21,3.36-.32,5.13-.32,2.23,0,4.27.13,6.12.4,1.84.27,3.54.63,5.08,1.09,1.54.46,2.93.99,4.18,1.6l-.85,4.79c-1.24-.6-2.59-1.12-4.04-1.54-1.45-.43-3-.76-4.65-1.01-1.65-.25-3.45-.37-5.4-.37-1.49,0-2.92.1-4.28.29-1.37.2-2.64.51-3.83.96-1.19.44-2.27,1.03-3.24,1.75-.98.73-1.82,1.61-2.53,2.66-.71,1.05-1.25,2.27-1.62,3.67-.37,1.4-.56,3-.56,4.81v1.49c0,1.7.18,3.21.53,4.52.35,1.31.86,2.46,1.52,3.43.66.98,1.45,1.8,2.39,2.47.94.67,1.99,1.22,3.16,1.62s2.44.7,3.8.88c1.36.18,2.79.27,4.28.27,1.88,0,3.66-.11,5.35-.32,1.68-.21,3.24-.5,4.65-.85v-9.79h-11.54v-4.79h17.92v17.92Z" fill="#0f4c96"/>
    <path d="M462.1,57.61h5.64l.48,5.53c.57-1.42,1.32-2.57,2.26-3.46.94-.89,2.02-1.53,3.24-1.94,1.22-.41,2.58-.61,4.07-.61.92,0,1.72.07,2.39.21.67.14,1.28.34,1.81.58l-.96,5.32c-.57-.25-1.14-.42-1.73-.53s-1.27-.16-2.05-.16c-.96,0-1.87.11-2.74.32-.87.21-1.67.55-2.39,1.01-.73.46-1.36,1.08-1.89,1.86-.53.78-.95,1.75-1.25,2.9-.3,1.15-.45,2.51-.45,4.07v12.23h-6.44v-27.34Z" fill="#0f4c96"/>
    <path d="M500.34,85.9c-1.42,0-2.8-.1-4.15-.29-1.35-.2-2.61-.51-3.78-.96-1.17-.44-2.23-1.02-3.19-1.73-.96-.71-1.78-1.58-2.47-2.61s-1.22-2.23-1.6-3.62c-.37-1.38-.56-2.96-.56-4.73v-1.33c0-1.77.2-3.35.59-4.73.39-1.38.95-2.6,1.67-3.64.73-1.05,1.59-1.92,2.58-2.63.99-.71,2.08-1.29,3.27-1.73,1.19-.44,2.46-.76,3.8-.96,1.35-.2,2.73-.29,4.15-.29s2.85.1,4.17.29c1.33.2,2.57.51,3.72.96,1.15.44,2.21,1.02,3.16,1.73.96.71,1.78,1.58,2.47,2.61s1.22,2.23,1.6,3.62c.37,1.38.56,2.96.56,4.73v1.28c0,1.77-.19,3.36-.58,4.76s-.95,2.62-1.67,3.64c-.73,1.03-1.59,1.91-2.58,2.63-.99.73-2.08,1.31-3.27,1.75-1.19.44-2.45.76-3.78.96-1.33.19-2.7.29-4.12.29ZM505.92,80.03c.78-.41,1.45-.97,2.02-1.67s1.01-1.6,1.33-2.66c.32-1.06.48-2.34.48-3.83v-1.17c0-1.49-.16-2.77-.48-3.83s-.76-1.95-1.33-2.66-1.24-1.27-2.02-1.68c-.78-.41-1.63-.69-2.55-.85-.92-.16-1.88-.24-2.87-.24s-2,.08-2.93.24c-.92.16-1.77.44-2.55.85-.78.41-1.45.97-2.02,1.68s-1.01,1.6-1.33,2.66-.48,2.34-.48,3.83v1.12c0,1.24.11,2.34.35,3.3.23.96.55,1.78.96,2.47.41.69.9,1.27,1.46,1.73.57.46,1.2.82,1.89,1.09.69.27,1.44.45,2.23.56s1.6.16,2.42.16c.99,0,1.95-.08,2.87-.24.92-.16,1.77-.44,2.55-.85Z" fill="#0f4c96"/>
    <path d="M551.4,84.95h-5.69l-.43-5c-.6,1.42-1.4,2.56-2.39,3.43-.99.87-2.2,1.51-3.62,1.92-1.42.41-3.03.61-4.84.61-1.45,0-2.79-.14-4.02-.42-1.22-.28-2.32-.73-3.3-1.33-.98-.6-1.81-1.39-2.5-2.37-.69-.97-1.21-2.17-1.57-3.59-.35-1.42-.53-3.07-.53-4.95v-15.64h6.44v15.21c0,1.28.11,2.37.32,3.27s.51,1.67.9,2.29c.39.62.88,1.12,1.46,1.49s1.25.64,1.99.8c.75.16,1.56.24,2.45.24,1.38,0,2.62-.17,3.7-.51,1.08-.34,2-.88,2.77-1.62.76-.74,1.35-1.73,1.75-2.95.41-1.22.61-2.74.61-4.55v-13.67h6.49v27.34Z" fill="#0f4c96"/>
    <path d="M559.43,57.61h5.74l.32,4.42c.64-1.24,1.51-2.25,2.61-3.03,1.1-.78,2.39-1.36,3.88-1.75,1.49-.39,3.14-.58,4.95-.58,1.24,0,2.45.1,3.62.29,1.17.2,2.28.51,3.32.96s2.01,1.02,2.9,1.73c.89.71,1.65,1.58,2.29,2.61.64,1.03,1.13,2.22,1.49,3.59s.53,2.93.53,4.71v1.28c0,1.77-.19,3.35-.56,4.73s-.9,2.6-1.57,3.64-1.46,1.94-2.37,2.69c-.9.74-1.9,1.34-2.98,1.78-1.08.44-2.22.77-3.4.98-1.19.21-2.4.32-3.64.32-1.67,0-3.19-.17-4.57-.51s-2.59-.86-3.62-1.57-1.86-1.6-2.5-2.66v14.36h-6.44v-37.97ZM584,67.02c-.32-1.06-.77-1.94-1.36-2.63s-1.28-1.24-2.07-1.65c-.8-.41-1.66-.69-2.58-.85-.92-.16-1.88-.24-2.87-.24s-1.95.08-2.87.24c-.92.16-1.76.44-2.53.85-.76.41-1.44.96-2.02,1.65s-1.04,1.57-1.36,2.63-.48,2.32-.48,3.78v1.12c0,1.45.16,2.71.48,3.78.32,1.06.77,1.94,1.36,2.63s1.27,1.24,2.05,1.65c.78.41,1.63.7,2.55.88.92.18,1.88.27,2.87.27s1.95-.09,2.87-.27c.92-.18,1.77-.47,2.55-.88.78-.41,1.46-.96,2.05-1.65s1.04-1.57,1.36-2.63c.32-1.06.48-2.32.48-3.78v-1.12c0-1.45-.16-2.71-.48-3.78Z" fill="#0f4c96"/>
  </g>
</svg>