<?xml version="1.0" encoding="UTF-8"?>
<svg id="Layer_1" data-name="Layer 1" xmlns="http://www.w3.org/2000/svg" viewBox="0 0 244 229">
  <g>
    <polygon points="95.06 5 79.46 5 56.23 5 46.88 34.47 82.07 173.94 97.66 173.94 122.1 173.94 137.69 173.94 95.06 5" fill="#1a51a0"/>
    <polygon points="165.77 5 150.18 5 126.94 5 117.59 34.47 152.78 173.94 168.37 173.94 192.8 173.94 208.39 173.94 165.77 5" fill="#1a51a0"/>
    <polygon points="190.93 5 177.65 5 220.27 173.94 233.55 173.94 190.93 5" fill="#be1f24"/>
    <path d="M38.3,64.62l-15.93,52.68h25.37c.75,0,1.06.97.46,1.4l-21.14,15.36,8.08,24.86c.23.71-.59,1.32-1.2.87l-20.02-14.54-8.66,28.68h60.61l-27.58-109.32h0Z" fill="#1a51a0"/>
  </g>
  <g>
    <path d="M4.95,193.54h3.72l9.33,14.3,9.3-14.3h3.63v21.2h-3.51v-16.05l-7.94,12.12h-3.09l-7.91-12.08v16.02h-3.54v-21.2Z" fill="#0f4c96"/>
    <path d="M51.78,207.87h-13.33c.04.73.17,1.35.38,1.86.21.51.5.94.88,1.27.37.33.8.6,1.27.8.47.2,1,.34,1.57.42.58.08,1.19.12,1.83.12,1.17,0,2.29-.12,3.36-.35,1.07-.23,2.1-.55,3.09-.95l.48,2.57c-.65.26-1.36.51-2.15.73-.79.22-1.62.39-2.51.51s-1.83.18-2.82.18c-.87,0-1.7-.06-2.5-.17-.8-.11-1.54-.29-2.21-.55-.68-.25-1.28-.58-1.82-1-.54-.41-1-.91-1.38-1.5-.38-.59-.68-1.27-.88-2.04s-.3-1.66-.3-2.65v-.73c0-.99.11-1.87.33-2.63s.54-1.44.95-2.01.9-1.06,1.45-1.45c.55-.39,1.17-.72,1.83-.97.67-.25,1.37-.43,2.12-.54.75-.11,1.5-.17,2.27-.17.93,0,1.81.08,2.63.24.83.16,1.57.43,2.23.8.66.37,1.23.86,1.71,1.45s.85,1.32,1.11,2.18c.25.86.38,1.87.38,3.04v1.51ZM46.27,201.68c-.38-.19-.81-.33-1.27-.41-.46-.08-.98-.12-1.54-.12-.5,0-.99.04-1.47.12-.47.08-.91.21-1.32.39-.4.18-.76.44-1.08.77-.31.33-.57.75-.76,1.26-.19.5-.32,1.11-.38,1.82h9.72c-.02-.71-.11-1.31-.27-1.82-.16-.5-.38-.92-.65-1.24s-.6-.58-.98-.77Z" fill="#0f4c96"/>
    <path d="M55.59,199.18h3.21l.27,3.15c.32-.81.75-1.46,1.29-1.97s1.15-.87,1.85-1.11c.7-.23,1.47-.35,2.32-.35.53,0,.98.04,1.36.12.38.08.73.19,1.03.33l-.55,3.03c-.32-.14-.65-.24-.98-.3-.33-.06-.72-.09-1.17-.09-.54,0-1.07.06-1.56.18-.5.12-.95.31-1.36.58-.41.26-.77.62-1.08,1.06-.3.44-.54.99-.71,1.65-.17.66-.26,1.43-.26,2.32v6.97h-3.67v-15.57Z" fill="#0f4c96"/>
    <path d="M73.46,196.75h-3.85v-3.6h3.85v3.6ZM69.68,199.18h3.66v15.57h-3.66v-15.57Z" fill="#0f4c96"/>
    <path d="M92.03,202.78c-.53-.24-1.07-.45-1.62-.62-.56-.17-1.14-.3-1.76-.39-.62-.09-1.29-.14-2.01-.14-.48,0-.97.04-1.45.11-.49.07-.94.19-1.38.35-.43.16-.84.37-1.21.64-.37.26-.7.59-.97.97-.27.38-.48.84-.64,1.36-.15.53-.23,1.13-.23,1.82v.64c0,.73.1,1.36.3,1.89.2.54.49.98.86,1.35.37.36.8.66,1.29.89.48.23,1.01.4,1.59.5.58.1,1.17.15,1.77.15.77,0,1.47-.05,2.12-.14s1.27-.22,1.86-.39c.59-.17,1.18-.38,1.74-.62l.48,2.64c-.57.24-1.19.46-1.86.65-.68.19-1.42.34-2.23.46-.81.11-1.7.17-2.67.17-.83,0-1.63-.06-2.39-.18-.77-.12-1.49-.3-2.17-.54s-1.29-.56-1.83-.95-1.01-.87-1.41-1.42c-.39-.55-.7-1.2-.91-1.94-.21-.74-.32-1.56-.32-2.47v-.7c0-.97.12-1.84.35-2.62.23-.78.56-1.46.97-2.04.41-.59.91-1.09,1.48-1.51.58-.42,1.21-.77,1.89-1.03.69-.26,1.42-.45,2.2-.58.78-.12,1.58-.18,2.41-.18.89,0,1.71.06,2.45.17s1.43.26,2.06.45c.63.19,1.19.41,1.7.65l-.48,2.63Z" fill="#0f4c96"/>
    <path d="M96.27,192.63h3.6v13.02l8.12-6.48h4.79l-9.21,7.03,9.81,8.54h-4.88l-8.63-7.97v7.97h-3.6v-22.11Z" fill="#0f4c96"/>
    <path d="M130.44,205.26v9.48h-3.3l-.15-2.18c-.53.89-1.29,1.57-2.3,2.03-1.01.46-2.29.7-3.85.7-.54,0-1.09-.03-1.64-.09s-1.06-.16-1.54-.3c-.48-.14-.93-.33-1.35-.56-.41-.23-.77-.52-1.06-.88-.29-.35-.53-.77-.7-1.26-.17-.49-.26-1.05-.26-1.7s.08-1.23.26-1.76c.17-.52.45-.99.85-1.41.39-.41.92-.76,1.57-1.04s1.47-.5,2.45-.65c.98-.15,2.13-.23,3.47-.23.79,0,1.5.02,2.13.06.64.04,1.23.08,1.77.12v-.45c0-.67-.1-1.23-.29-1.68-.19-.45-.48-.82-.86-1.09s-.85-.47-1.41-.61c-.56-.13-1.2-.2-1.92-.2s-1.46.06-2.2.18c-.74.12-1.45.28-2.15.48s-1.36.44-1.98.73l-.45-2.6c.42-.2.9-.39,1.44-.58.54-.18,1.11-.34,1.73-.49.62-.14,1.26-.25,1.92-.33.67-.08,1.36-.12,2.09-.12,2.6,0,4.54.53,5.82,1.58,1.27,1.05,1.91,2.67,1.91,4.85ZM126.56,210.25c.16-.45.24-.98.24-1.59v-.76c-.4-.04-.8-.07-1.18-.09-.38-.02-.78-.04-1.2-.05-.41,0-.87-.01-1.38-.01-.97,0-1.78.05-2.42.15-.65.1-1.17.25-1.56.45-.39.2-.67.46-.83.79-.16.32-.24.71-.24,1.15,0,.48.09.88.26,1.2.17.31.41.57.73.76.31.19.69.32,1.14.39.44.07.94.11,1.48.11.61,0,1.17-.05,1.7-.14s1-.23,1.44-.42c.43-.19.81-.45,1.12-.77.31-.32.55-.71.71-1.17Z" fill="#0f4c96"/>
    <path d="M162.66,213.59c-.57.22-1.21.42-1.94.61-.73.18-1.5.34-2.33.48s-1.68.25-2.56.33c-.88.08-1.77.12-2.68.12-1.21,0-2.37-.08-3.47-.23s-2.12-.39-3.06-.71c-.94-.32-1.79-.75-2.54-1.29-.76-.54-1.4-1.18-1.94-1.94-.54-.76-.94-1.64-1.23-2.65-.28-1.01-.42-2.16-.42-3.45v-.94c0-1.15.11-2.19.33-3.12.22-.93.55-1.77.97-2.51s.93-1.41,1.53-1.98c.6-.58,1.26-1.06,2-1.47.74-.4,1.53-.73,2.38-.98.85-.25,1.74-.44,2.68-.56.94-.12,1.91-.18,2.92-.18,1.27,0,2.43.08,3.48.23s2.01.36,2.89.62c.88.26,1.67.57,2.38.91l-.48,2.73c-.71-.34-1.47-.64-2.3-.88s-1.71-.43-2.65-.58c-.94-.14-1.96-.21-3.07-.21-.85,0-1.66.06-2.44.17-.78.11-1.5.29-2.18.54-.68.25-1.29.59-1.85,1-.56.41-1.04.92-1.44,1.51-.4.6-.71,1.29-.92,2.09s-.32,1.71-.32,2.74v.85c0,.97.1,1.83.3,2.57.2.75.49,1.4.86,1.95s.83,1.02,1.36,1.41c.53.38,1.14.69,1.8.92.67.23,1.39.4,2.17.5s1.59.15,2.44.15c1.07,0,2.08-.06,3.04-.18.96-.12,1.84-.28,2.65-.49v-5.57h-6.57v-2.73h10.21v10.21Z" fill="#0f4c96"/>
    <path d="M166.69,199.18h3.21l.27,3.15c.32-.81.75-1.46,1.29-1.97s1.15-.87,1.85-1.11c.7-.23,1.47-.35,2.32-.35.53,0,.98.04,1.36.12.38.08.73.19,1.03.33l-.55,3.03c-.32-.14-.65-.24-.98-.3-.33-.06-.72-.09-1.17-.09-.54,0-1.07.06-1.56.18-.5.12-.95.31-1.36.58-.41.26-.77.62-1.08,1.06-.3.44-.54.99-.71,1.65-.17.66-.26,1.43-.26,2.32v6.97h-3.67v-15.57Z" fill="#0f4c96"/>
    <path d="M188.47,215.29c-.81,0-1.59-.06-2.36-.17-.77-.11-1.48-.29-2.15-.55-.67-.25-1.27-.58-1.82-.98-.54-.4-1.01-.9-1.41-1.48s-.7-1.27-.91-2.06c-.21-.79-.32-1.69-.32-2.7v-.76c0-1.01.11-1.91.33-2.7.22-.79.54-1.48.95-2.08s.9-1.09,1.47-1.5,1.19-.73,1.86-.98c.68-.25,1.4-.43,2.17-.54.77-.11,1.55-.17,2.36-.17s1.62.06,2.38.17c.76.11,1.46.29,2.12.54.66.25,1.26.58,1.8.98.54.4,1.01.9,1.41,1.48s.7,1.27.91,2.06c.21.79.32,1.69.32,2.7v.73c0,1.01-.11,1.91-.33,2.71-.22.8-.54,1.49-.95,2.08-.41.59-.9,1.08-1.47,1.5s-1.19.75-1.86,1c-.68.25-1.39.43-2.15.55-.76.11-1.54.17-2.35.17ZM191.65,211.94c.44-.23.83-.55,1.15-.95.32-.4.58-.91.76-1.51.18-.61.27-1.33.27-2.18v-.67c0-.85-.09-1.58-.27-2.18s-.43-1.11-.76-1.51c-.32-.4-.71-.72-1.15-.95-.44-.23-.93-.39-1.45-.48s-1.07-.14-1.64-.14-1.14.05-1.67.14c-.53.09-1.01.25-1.45.48-.44.23-.83.55-1.15.95-.32.4-.58.91-.76,1.51s-.27,1.33-.27,2.18v.64c0,.71.07,1.33.2,1.88.13.54.31,1.01.55,1.41.23.39.51.72.83.98.32.26.68.47,1.08.62.39.15.82.26,1.27.32s.91.09,1.38.09c.57,0,1.11-.05,1.64-.14s1.01-.25,1.45-.48Z" fill="#0f4c96"/>
    <path d="M217.54,214.75h-3.24l-.24-2.85c-.34.81-.8,1.46-1.36,1.95-.57.5-1.25.86-2.06,1.09-.81.23-1.73.35-2.76.35-.83,0-1.59-.08-2.29-.24-.7-.16-1.32-.41-1.88-.76-.56-.34-1.03-.79-1.42-1.35-.39-.56-.69-1.24-.89-2.04s-.3-1.75-.3-2.82v-8.91h3.67v8.66c0,.73.06,1.35.18,1.86s.29.95.51,1.3c.22.35.5.64.83.85s.71.36,1.14.45c.42.09.89.14,1.39.14.79,0,1.49-.1,2.11-.29.62-.19,1.14-.5,1.57-.92.43-.42.77-.98,1-1.68.23-.7.35-1.56.35-2.59v-7.78h3.69v15.57Z" fill="#0f4c96"/>
    <path d="M222.12,199.18h3.27l.18,2.51c.36-.71.86-1.28,1.48-1.73.62-.44,1.36-.78,2.21-1,.85-.22,1.79-.33,2.82-.33.71,0,1.39.06,2.06.17.67.11,1.3.29,1.89.54.59.25,1.15.58,1.65.98s.94.9,1.3,1.48.65,1.27.85,2.04.3,1.67.3,2.68v.73c0,1.01-.11,1.91-.32,2.7-.21.79-.51,1.48-.89,2.07-.38.6-.83,1.11-1.35,1.53-.51.42-1.08.76-1.7,1.01-.62.25-1.26.44-1.94.56-.68.12-1.37.18-2.08.18-.95,0-1.82-.1-2.6-.29-.79-.19-1.47-.49-2.06-.89-.59-.4-1.06-.91-1.42-1.51v8.18h-3.67v-21.63ZM236.11,204.54c-.18-.61-.44-1.11-.77-1.5-.33-.39-.73-.71-1.18-.94-.45-.23-.94-.39-1.47-.48-.53-.09-1.07-.14-1.64-.14s-1.11.05-1.64.14c-.53.09-1,.25-1.44.48-.43.23-.82.54-1.15.94-.33.39-.59.89-.77,1.5s-.27,1.32-.27,2.15v.64c0,.83.09,1.54.27,2.15.18.61.44,1.11.77,1.5.33.39.72.71,1.17.94.44.23.93.4,1.45.5.52.1,1.07.15,1.64.15s1.11-.05,1.64-.15c.52-.1,1.01-.27,1.45-.5.44-.23.83-.54,1.17-.94.33-.39.59-.89.77-1.5.18-.61.27-1.32.27-2.15v-.64c0-.83-.09-1.54-.27-2.15Z" fill="#0f4c96"/>
  </g>
</svg>