<?xml version="1.0" encoding="UTF-8"?>
<svg id="Layer_1" data-name="Layer 1" xmlns="http://www.w3.org/2000/svg" viewBox="0 0 244 180">
  <polygon points="95.06 5 79.46 5 56.23 5 46.88 34.47 82.07 173.94 97.66 173.94 122.1 173.94 137.69 173.94 95.06 5" fill="#1a51a0"/>
  <polygon points="165.77 5 150.18 5 126.94 5 117.59 34.47 152.78 173.94 168.37 173.94 192.8 173.94 208.39 173.94 165.77 5" fill="#1a51a0"/>
  <polygon points="190.93 5 177.65 5 220.27 173.94 233.55 173.94 190.93 5" fill="#be1f24"/>
  <path d="M38.3,64.62l-15.93,52.68h25.37c.75,0,1.06.97.46,1.4l-21.14,15.36,8.08,24.86c.23.71-.59,1.32-1.2.87l-20.02-14.54-8.66,28.68h60.61l-27.58-109.32h0Z" fill="#1a51a0"/>
</svg>